<svg xmlns="http://www.w3.org/2000/svg" version="1.1" xmlns:xlink="http://www.w3.org/1999/xlink" xmlns:svgjs="http://svgjs.dev/svgjs" width="1000" height="383" viewBox="0 0 1000 383"><g transform="matrix(1,0,0,1,-0.6060606060606801,-0.5842066876006129)"><svg viewBox="0 0 396 152" data-background-color="#ffffff" preserveAspectRatio="xMidYMid meet" height="383" width="1000" xmlns="http://www.w3.org/2000/svg" xmlns:xlink="http://www.w3.org/1999/xlink"><g id="tight-bounds" transform="matrix(1,0,0,1,0.24000000000003752,0.2318522624420183)"><svg viewBox="0 0 395.5199999999999 151.53629547511596" height="151.53629547511596" width="395.5199999999999"><g><svg viewBox="0 0 397.4975999999999 152.29397695249153" height="151.53629547511596" width="395.5199999999999"><g><rect width="397.4975999999999" height="4.6645633695964" x="0" y="83.69407481190794" fill="#8dbdff" opacity="1" stroke-width="0" stroke="transparent" fill-opacity="1" class="rect-o-0" data-fill-palette-color="secondary" rx="1%" id="o-0" data-palette-color="#8dbdff"></rect></g><g transform="matrix(1,0,0,1,0.9887999999999693,100.56953705479333)"><svg viewBox="0 0 395.52 51.72443989769821" height="51.72443989769821" width="395.52"><g id="textblocktransform"><svg viewBox="0 0 395.52 51.72443989769821" height="51.72443989769821" width="395.52" id="textblock"><g><svg viewBox="0 0 395.52 51.72443989769821" height="51.72443989769821" width="395.52"><g transform="matrix(1,0,0,1,0,0)"><svg width="395.52" viewBox="5.349999904632568 -38.349998474121094 293.22998046875 38.349998474121094" height="51.72443989769821" data-palette-color="#8dbdff"><path d="M29.3-37.9L34.15-37.9 34.15 0 29.3 0 29.3-16.85 10.2-16.85 10.2 0 5.35 0 5.35-37.9 10.2-37.9 10.2-21.25 29.3-21.25 29.3-37.9ZM49.7-4.2L68.05-4.2 68.05 0 44.85 0 44.85-37.9 67.8-37.9 67.8-33.7 49.7-33.7 49.7-21.15 65.3-21.15 65.3-16.95 49.7-16.95 49.7-4.2ZM101.34 0L97.25-11.05 81.45-11.05 77.39 0 72.39 0 86.65-38.35 92.05-38.35 106.34 0 101.34 0ZM83.09-15.4L95.59-15.4 89.34-32.3 83.09-15.4ZM117.84-4.35L133.69-4.35 133.69 0 112.99 0 112.99-37.9 117.84-37.9 117.84-4.35ZM165.39-37.9L165.39-33.55 153.99-33.55 153.99 0 149.09 0 149.09-33.55 137.69-33.55 137.69-37.9 165.39-37.9ZM196.69-37.9L201.54-37.9 201.54 0 196.69 0 196.69-16.85 177.59-16.85 177.59 0 172.74 0 172.74-37.9 177.59-37.9 177.59-21.25 196.69-21.25 196.69-37.9ZM243.08-19.25Q249.88-17.05 249.88-10.25L249.88-10.25Q249.88-5.05 246.76-2.53 243.63 0 236.33 0L236.33 0 223.23 0 223.23-37.9 236.33-37.9Q242.98-37.9 245.68-35.4 248.38-32.9 248.38-27.75L248.38-27.75Q248.38-24.7 247.11-22.58 245.83-20.45 243.08-19.25L243.08-19.25ZM228.08-33.8L228.08-21.05 236.33-21.05Q243.38-21.05 243.43-27.4L243.43-27.4Q243.43-30.9 241.88-32.35 240.33-33.8 236.33-33.8L236.33-33.8 228.08-33.8ZM244.93-10.55Q244.93-13.9 242.76-15.43 240.58-16.95 236.33-16.95L236.33-16.95 228.08-16.95 228.08-4.1 236.33-4.1Q241.03-4.1 242.98-5.65 244.93-7.2 244.93-10.55L244.93-10.55ZM258.68 0L258.68-37.9 263.53-37.9 263.53 0 258.68 0ZM298.58-37.9L298.58-33.55 287.18-33.55 287.18 0 282.28 0 282.28-33.55 270.88-33.55 270.88-37.9 298.58-37.9Z" opacity="1" transform="matrix(1,0,0,1,0,0)" fill="#8dbdff" class="wordmark-text-0" data-fill-palette-color="primary" id="text-0"></path></svg></g></svg></g></svg></g></svg></g><g transform="matrix(1,0,0,1,155.00721203069048,0)"><svg viewBox="0 0 87.48317593861893 71.48317593861893" height="71.48317593861893" width="87.48317593861893"><g><svg xmlns="http://www.w3.org/2000/svg" xmlns:xlink="http://www.w3.org/1999/xlink" version="1.1" baseProfile="tiny" x="8" y="0" viewBox="0 0 100 100" xml:space="preserve" height="71.48317593861893" width="71.48317593861893" class="icon-icon-0" data-fill-palette-color="accent" id="icon-0"><path d="M100 52.993v-6.004H53.466v-3.947h45.905c0 0-3.666-37.641-41.991-42.47v34.642h31.661c0 0-5.333-14.49-13.331-17.821v11.992H63.546V8.566c0 0 22.161 3.165 29.327 29.313l-39.407-0.232V0h-6.005v37.611L8.058 37.379c0 0 5.331-23.317 29.826-29.812l-0.333 21.818H25.554V17.061c0 0-9.998 4.996-13.997 18.154H43.05V0.739c0 0-37.326 5.496-42.491 42.303h46.902v3.947H0v6.004h47.461v4.537H0.642c5.166 36.806 42.492 42.302 42.492 42.302V65.357H11.64c3.999 13.158 13.997 18.154 13.997 18.154V71.187h11.998l0.333 21.818C13.473 86.51 8.141 63.192 8.141 63.192l39.32-0.231v36.988h6.005V62.925l39.49-0.231c-7.165 26.147-29.327 29.313-29.327 29.313V71.187h12.165v11.991c7.998-3.33 13.33-17.819 13.33-17.819H57.463V100c38.326-4.829 41.992-42.47 41.992-42.47H53.466v-4.537H100z" fill="#8dbdff" data-fill-palette-color="accent"></path></svg></g></svg></g><g><rect width="78.47409203069051" height="4.6645633695964" y="65.81861256902253" x="242.4903879693094" fill="#8dbdff" data-fill-palette-color="secondary"></rect><rect width="78.47409203069051" height="4.6645633695964" y="65.81861256902253" x="76.53311999999998" fill="#8dbdff" data-fill-palette-color="secondary"></rect></g></svg></g><defs></defs></svg><rect width="395.5199999999999" height="151.53629547511596" fill="none" stroke="none" visibility="hidden"></rect></g></svg></g></svg>